<?xml version="1.0" encoding="UTF-8" standalone="no"?>
<svg xmlns="http://www.w3.org/2000/svg" viewBox="0 0 32 32" width="32" height="32">
  <!-- Background -->
  <rect width="32" height="32" fill="white"/>

  <!-- Vertical timeline line (right side) -->
  <line x1="24" y1="4" x2="24" y2="28" stroke="#0ea5e9" stroke-width="2"/>

  <!-- Timeline dots -->
  <circle cx="24" cy="8" r="2" fill="#06b6d4"/>
  <circle cx="24" cy="16" r="2" fill="#3b82f6"/>
  <circle cx="24" cy="24" r="2" fill="#f97316"/>

  <!-- Horizontal arms -->
  <line x1="24" y1="8" x2="30" y2="8" stroke="#1e3a8a" stroke-width="2"/>
  <line x1="24" y1="16" x2="16" y2="16" stroke="#1e3a8a" stroke-width="2"/>
  <line x1="24" y1="24" x2="30" y2="24" stroke="#1e3a8a" stroke-width="2"/>

  <!-- Enlarged Tailwind logo at top-left -->
  <g transform="translate(0,0) scale(0.9)">
    <path d="M4 3c2-4 6-4 8 0 1 2 2 2 4 2-2 4-6 4-8 0-1-2-2-2-4-2z
             M0 11c2-4 6-4 8 0 1 2 2 2 4 2-2 4-6 4-8 0-1-2-2-2-4-2z"
          fill="#06b6d4"/>
  </g>
</svg>